<svg id="visual" viewBox="0 0 3840 2160" width="3840" height="2160" xmlns="http://www.w3.org/2000/svg" xmlns:xlink="http://www.w3.org/1999/xlink" version="1.1"><rect x="0" y="0" width="3840" height="2160" fill="#002233"></rect><path d="M0 1391L71.2 1435.5C142.3 1480 284.7 1569 426.8 1562C569 1555 711 1452 853.2 1426.8C995.3 1401.7 1137.7 1454.3 1280 1504.7C1422.3 1555 1564.7 1603 1706.8 1634C1849 1665 1991 1679 2133.2 1656.2C2275.3 1633.3 2417.7 1573.7 2560 1528.3C2702.3 1483 2844.7 1452 2986.8 1494.5C3129 1537 3271 1653 3413.2 1720.3C3555.3 1787.7 3697.7 1806.3 3768.8 1815.7L3840 1825L3840 2161L3768.8 2161C3697.7 2161 3555.3 2161 3413.2 2161C3271 2161 3129 2161 2986.8 2161C2844.7 2161 2702.3 2161 2560 2161C2417.7 2161 2275.3 2161 2133.2 2161C1991 2161 1849 2161 1706.8 2161C1564.7 2161 1422.3 2161 1280 2161C1137.7 2161 995.3 2161 853.2 2161C711 2161 569 2161 426.8 2161C284.7 2161 142.3 2161 71.2 2161L0 2161Z" fill="#0066FF" stroke-linecap="round" stroke-linejoin="miter"></path></svg>